<svg width="40" height="40" viewBox="0 0 40 40" fill="none" xmlns="http://www.w3.org/2000/svg">
<rect x="1" y="1" width="38" height="38" rx="19" stroke="#CEDEF8" style="stroke:#CEDEF8;stroke:color(display-p3 0.8064 0.8725 0.9716);stroke-opacity:1;" stroke-width="2"/>
<path d="M27.1834 17.0404C26.3084 13.1904 22.9501 11.457 20.0001 11.457C20.0001 11.457 20.0001 11.457 19.9917 11.457C17.0501 11.457 13.6834 13.182 12.8084 17.032C11.8334 21.332 14.4667 24.9737 16.8501 27.2654C17.7334 28.1154 18.8667 28.5404 20.0001 28.5404C21.1334 28.5404 22.2667 28.1154 23.1417 27.2654C25.5251 24.9737 28.1584 21.3404 27.1834 17.0404ZM20.0001 21.2154C18.5501 21.2154 17.3751 20.0404 17.3751 18.5904C17.3751 17.1404 18.5501 15.9654 20.0001 15.9654C21.4501 15.9654 22.6251 17.1404 22.6251 18.5904C22.6251 20.0404 21.4501 21.2154 20.0001 21.2154Z" fill="#478EF8" style="fill:#478EF8;fill:color(display-p3 0.2785 0.5558 0.9716);fill-opacity:1;"/>
</svg>
