<svg width="24" height="24" viewBox="0 0 24 24" fill="none" xmlns="http://www.w3.org/2000/svg">
<g clip-path="url(#clip0_1404_15203)">
<path d="M11.4857 9.37216C11.6507 8.87716 12.3497 8.87716 12.5147 9.37216L13.4822 12.2777C13.6952 12.9164 14.054 13.4967 14.5302 13.9726C15.0064 14.4486 15.5869 14.8071 16.2257 15.0197L19.1297 15.9872C19.6247 16.1522 19.6247 16.8512 19.1297 17.0162L16.2242 17.9837C15.5855 18.1966 15.0052 18.5554 14.5292 19.0316C14.0533 19.5078 13.6948 20.0883 13.4822 20.7272L12.5147 23.6312C12.4791 23.7396 12.4102 23.8339 12.3178 23.9009C12.2254 23.9678 12.1143 24.0038 12.0002 24.0038C11.8861 24.0038 11.775 23.9678 11.6826 23.9009C11.5902 23.8339 11.5213 23.7396 11.4857 23.6312L10.5182 20.7257C10.3054 20.0871 9.94683 19.5069 9.47089 19.031C8.99496 18.555 8.41474 18.1965 7.7762 17.9837L4.8707 17.0162C4.76231 16.9806 4.66792 16.9117 4.60101 16.8193C4.53409 16.7269 4.49806 16.6157 4.49806 16.5017C4.49806 16.3876 4.53409 16.2764 4.60101 16.184C4.66792 16.0916 4.76231 16.0227 4.8707 15.9872L7.7762 15.0197C8.41474 14.8069 8.99496 14.4483 9.47089 13.9724C9.94683 13.4964 10.3054 12.9162 10.5182 12.2777L11.4857 9.37216ZM5.6912 1.72366C5.71271 1.6587 5.75415 1.60217 5.80962 1.56211C5.86509 1.52204 5.93178 1.50048 6.0002 1.50048C6.06863 1.50048 6.13532 1.52204 6.19079 1.56211C6.24626 1.60217 6.28769 1.6587 6.3092 1.72366L6.8897 3.46666C7.1492 4.24366 7.7582 4.85266 8.5352 5.11216L10.2782 5.69266C10.3432 5.71417 10.3997 5.7556 10.4398 5.81108C10.4798 5.86655 10.5014 5.93323 10.5014 6.00166C10.5014 6.07009 10.4798 6.13677 10.4398 6.19225C10.3997 6.24772 10.3432 6.28915 10.2782 6.31066L8.5352 6.89116C8.15199 7.01884 7.80378 7.23401 7.51817 7.51962C7.23255 7.80524 7.01738 8.15345 6.8897 8.53666L6.3092 10.2797C6.28769 10.3446 6.24626 10.4011 6.19079 10.4412C6.13532 10.4813 6.06863 10.5028 6.0002 10.5028C5.93178 10.5028 5.86509 10.4813 5.80962 10.4412C5.75415 10.4011 5.71271 10.3446 5.6912 10.2797L5.1107 8.53666C4.98303 8.15345 4.76786 7.80524 4.48224 7.51962C4.19663 7.23401 3.84842 7.01884 3.4652 6.89116L1.7222 6.31066C1.65725 6.28915 1.60072 6.24772 1.56065 6.19225C1.52059 6.13677 1.49902 6.07009 1.49902 6.00166C1.49902 5.93323 1.52059 5.86655 1.56065 5.81108C1.60072 5.7556 1.65725 5.71417 1.7222 5.69266L3.4652 5.11216C3.84842 4.98449 4.19663 4.76932 4.48224 4.4837C4.76786 4.19808 4.98303 3.84987 5.1107 3.46666L5.6912 1.72366ZM16.2947 0.15016C16.3095 0.10745 16.3373 0.0704141 16.3741 0.0442026C16.4109 0.0179911 16.455 0.00390625 16.5002 0.00390625C16.5454 0.00390625 16.5895 0.0179911 16.6263 0.0442026C16.6631 0.0704141 16.6909 0.10745 16.7057 0.15016L17.0927 1.31116C17.2652 1.83016 17.6717 2.23666 18.1907 2.40916L19.3517 2.79616C19.3944 2.81097 19.4314 2.83872 19.4577 2.87554C19.4839 2.91237 19.498 2.95646 19.498 3.00166C19.498 3.04686 19.4839 3.09095 19.4577 3.12778C19.4314 3.16461 19.3944 3.19235 19.3517 3.20716L18.1907 3.59416C17.9349 3.67924 17.7025 3.82279 17.5119 4.01338C17.3213 4.20398 17.1778 4.43639 17.0927 4.69216L16.7057 5.85316C16.6909 5.89587 16.6631 5.93291 16.6263 5.95912C16.5895 5.98533 16.5454 5.99941 16.5002 5.99941C16.455 5.99941 16.4109 5.98533 16.3741 5.95912C16.3373 5.93291 16.3095 5.89587 16.2947 5.85316L15.9077 4.69216C15.8226 4.43639 15.6791 4.20398 15.4885 4.01338C15.2979 3.82279 15.0655 3.67924 14.8097 3.59416L13.6502 3.20716C13.6075 3.19235 13.5705 3.16461 13.5442 3.12778C13.518 3.09095 13.5039 3.04686 13.5039 3.00166C13.5039 2.95646 13.518 2.91237 13.5442 2.87554C13.5705 2.83872 13.6075 2.81097 13.6502 2.79616L14.8112 2.40916C15.3302 2.23666 15.7367 1.83016 15.9092 1.31116L16.2947 0.15166V0.15016Z" fill="#707070"/>
</g>
<defs>
<clipPath id="clip0_1404_15203">
<rect width="24" height="24" fill="white"/>
</clipPath>
</defs>
</svg>
