<svg width="16" height="17" viewBox="0 0 16 17" fill="none" xmlns="http://www.w3.org/2000/svg">
<path d="M14.087 7.06743C14.8601 7.88081 14.8601 9.11658 14.087 9.92996C12.7832 11.3018 10.5438 13.1654 8.00016 13.1654C5.45649 13.1654 3.21716 11.3018 1.9133 9.92997C1.14023 9.11658 1.14023 7.88081 1.9133 7.06743C3.21716 5.69559 5.45649 3.83203 8.00016 3.83203C10.5438 3.83203 12.7832 5.69559 14.087 7.06743Z" stroke="#707070"/>
<path d="M10.0002 8.4987C10.0002 9.60327 9.10473 10.4987 8.00016 10.4987C6.89559 10.4987 6.00016 9.60327 6.00016 8.4987C6.00016 7.39413 6.89559 6.4987 8.00016 6.4987C9.10473 6.4987 10.0002 7.39413 10.0002 8.4987Z" stroke="#707070"/>
</svg>
