<svg width="24" height="24" viewBox="0 0 24 24" fill="none" xmlns="http://www.w3.org/2000/svg">
<path d="M18 16L20 16C21.1046 16 22 15.1046 22 14L22 5C22 3.89543 21.1046 3 20 3L18 3C16.8954 3 16 3.89543 16 5L16 14C16 15.1046 16.8954 16 18 16Z" stroke="#707070" stroke-width="1.5" stroke-linecap="round" stroke-linejoin="round"/>
<path d="M8.1231 3L11.7889 3C12.5786 3 13.3506 3.23375 14.0077 3.6718L15.5547 4.70313C15.8329 4.8886 16 5.20083 16 5.53518L16 13.7344C16 13.9085 15.9546 14.0795 15.8682 14.2306L12 21L10.6713 21C8.67455 21 7.48357 18.7746 8.59117 17.1133L10 15L4.56155 15C3.26041 15 2.30569 13.7772 2.62127 12.5149L4.24253 6.02986C4.6877 4.24919 6.28763 3 8.1231 3Z" stroke="#707070" stroke-width="1.5" stroke-linecap="round" stroke-linejoin="round"/>
</svg>
