<svg width="24" height="25" viewBox="0 0 24 25" fill="none" xmlns="http://www.w3.org/2000/svg">
<path d="M12.8485 4.5H11.1515C10.2143 4.5 9.45453 5.21634 9.45453 6.1C9.45453 7.11121 8.37258 7.75411 7.48444 7.27064L7.39423 7.22153C6.58258 6.77971 5.54472 7.04191 5.07612 7.80717L4.22763 9.19281C3.75902 9.95808 4.03711 10.9366 4.84877 11.3785C5.73734 11.8622 5.73733 13.1378 4.84876 13.6215C4.03711 14.0634 3.75902 15.0419 4.22763 15.8072L5.07612 17.1928C5.54472 17.9581 6.58258 18.2203 7.39423 17.7785L7.48444 17.7294C8.37258 17.2459 9.45453 17.8888 9.45453 18.9C9.45453 19.7837 10.2143 20.5 11.1515 20.5H12.8485C13.7857 20.5 14.5455 19.7837 14.5455 18.9C14.5455 17.8888 15.6274 17.2459 16.5156 17.7294L16.6058 17.7785C17.4174 18.2203 18.4553 17.9581 18.9239 17.1928L19.7724 15.8072C20.241 15.0419 19.9629 14.0634 19.1512 13.6215C18.2627 13.1378 18.2627 11.8622 19.1512 11.3785C19.9629 10.9366 20.241 9.95809 19.7724 9.19283L18.9239 7.80719C18.4553 7.04192 17.4174 6.77972 16.6058 7.22154L16.5156 7.27065C15.6274 7.75412 14.5455 7.11122 14.5455 6.1C14.5455 5.21634 13.7857 4.5 12.8485 4.5Z" fill="#292929"/>
<path d="M19.7724 15.8072L20.412 16.1988L19.7724 15.8072ZM18.9239 17.1928L19.5635 17.5845V17.5845L18.9239 17.1928ZM4.22763 9.19281L3.58802 8.80115H3.58802L4.22763 9.19281ZM5.07612 7.80717L5.71573 8.19884V8.19883L5.07612 7.80717ZM7.39423 7.22153L7.03565 7.88026L7.39423 7.22153ZM4.84877 11.3785L5.20735 10.7197L4.84877 11.3785ZM16.6058 17.7785L16.2472 18.4372L16.2472 18.4372L16.6058 17.7785ZM19.1512 13.6215L18.7926 14.2803L18.7926 14.2803L19.1512 13.6215ZM5.07612 17.1928L4.4365 17.5845L4.43651 17.5845L5.07612 17.1928ZM4.22763 15.8072L4.86724 15.4155L4.86724 15.4155L4.22763 15.8072ZM18.9239 7.80719L18.2843 8.19885V8.19885L18.9239 7.80719ZM19.7724 9.19283L20.412 8.80117V8.80116L19.7724 9.19283ZM19.1512 11.3785L18.7926 10.7197L19.1512 11.3785ZM16.6058 7.22154L16.9643 7.88027L16.6058 7.22154ZM4.84876 13.6215L4.49018 12.9628H4.49018L4.84876 13.6215ZM7.39423 17.7785L7.75281 18.4372L7.75281 18.4372L7.39423 17.7785ZM16.5156 7.27065L16.157 6.61192L16.5156 7.27065ZM7.48444 7.27064L7.12586 7.92936L7.12586 7.92936L7.48444 7.27064ZM16.5156 17.7294L16.8741 17.0706L16.8741 17.0706L16.5156 17.7294ZM7.48444 17.7294L7.12585 17.0706L7.12585 17.0706L7.48444 17.7294ZM11.1515 5.25H12.8485V3.75H11.1515V5.25ZM12.8485 19.75H11.1515V21.25H12.8485V19.75ZM11.1515 19.75C10.5863 19.75 10.2045 19.3285 10.2045 18.9H8.70453C8.70453 20.2388 9.84227 21.25 11.1515 21.25V19.75ZM13.7955 18.9C13.7955 19.3285 13.4137 19.75 12.8485 19.75V21.25C14.1577 21.25 15.2955 20.2388 15.2955 18.9H13.7955ZM12.8485 5.25C13.4137 5.25 13.7955 5.67153 13.7955 6.1H15.2955C15.2955 4.76116 14.1577 3.75 12.8485 3.75V5.25ZM11.1515 3.75C9.84227 3.75 8.70453 4.76116 8.70453 6.1H10.2045C10.2045 5.67153 10.5863 5.25 11.1515 5.25V3.75ZM19.1327 15.4155L18.2843 16.8012L19.5635 17.5845L20.412 16.1988L19.1327 15.4155ZM4.86724 9.58448L5.71573 8.19884L4.43651 7.41551L3.58802 8.80115L4.86724 9.58448ZM5.71573 8.19883C5.96579 7.79046 6.55772 7.62009 7.03565 7.88026L7.75281 6.56281C6.60744 5.93932 5.12366 6.29335 4.43651 7.41551L5.71573 8.19883ZM5.20735 10.7197C4.75281 10.4723 4.63441 9.9647 4.86724 9.58448L3.58802 8.80115C2.88363 9.95147 3.32141 11.401 4.49018 12.0372L5.20735 10.7197ZM18.2843 16.8012C18.0342 17.2095 17.4423 17.3799 16.9643 17.1197L16.2472 18.4372C17.3925 19.0607 18.8763 18.7066 19.5635 17.5845L18.2843 16.8012ZM20.412 16.1988C21.1164 15.0485 20.6786 13.599 19.5098 12.9628L18.7926 14.2803C19.2472 14.5277 19.3656 15.0353 19.1327 15.4155L20.412 16.1988ZM5.71573 16.8012L4.86724 15.4155L3.58802 16.1988L4.4365 17.5845L5.71573 16.8012ZM18.2843 8.19885L19.1327 9.58449L20.412 8.80116L19.5635 7.41552L18.2843 8.19885ZM19.1327 9.58449C19.3656 9.96471 19.2472 10.4723 18.7926 10.7197L19.5098 12.0372C20.6786 11.401 21.1164 9.95148 20.412 8.80117L19.1327 9.58449ZM16.9643 7.88027C17.4423 7.62011 18.0342 7.79048 18.2843 8.19885L19.5635 7.41552C18.8763 6.29336 17.3925 5.93933 16.2472 6.56282L16.9643 7.88027ZM4.86724 15.4155C4.63441 15.0353 4.75281 14.5277 5.20735 14.2803L4.49018 12.9628C3.32141 13.599 2.88363 15.0485 3.58802 16.1988L4.86724 15.4155ZM4.43651 17.5845C5.12366 18.7067 6.60744 19.0607 7.75281 18.4372L7.03565 17.1197C6.55772 17.3799 5.96579 17.2095 5.71573 16.8012L4.43651 17.5845ZM16.8741 7.92937L16.9643 7.88027L16.2472 6.56282L16.157 6.61192L16.8741 7.92937ZM7.03565 7.88026L7.12586 7.92936L7.84302 6.61191L7.75281 6.56281L7.03565 7.88026ZM16.9643 17.1197L16.8741 17.0706L16.157 18.3881L16.2472 18.4372L16.9643 17.1197ZM7.12585 17.0706L7.03565 17.1197L7.75281 18.4372L7.84302 18.3881L7.12585 17.0706ZM4.49018 12.0372C4.85686 12.2368 4.85686 12.7632 4.49018 12.9628L5.20735 14.2803C6.61781 13.5125 6.61781 11.4875 5.20735 10.7197L4.49018 12.0372ZM7.84302 18.3881C8.2314 18.1767 8.70453 18.4578 8.70453 18.9H10.2045C10.2045 17.3198 8.51377 16.3151 7.12585 17.0706L7.84302 18.3881ZM15.2955 18.9C15.2955 18.4578 15.7686 18.1767 16.157 18.3881L16.8741 17.0706C15.4862 16.3151 13.7955 17.3198 13.7955 18.9H15.2955ZM19.5098 12.9628C19.1431 12.7632 19.1431 12.2368 19.5098 12.0372L18.7926 10.7197C17.3822 11.4875 17.3822 13.5125 18.7926 14.2803L19.5098 12.9628ZM7.12586 7.92936C8.51377 8.68488 10.2045 7.68023 10.2045 6.1H8.70453C8.70453 6.5422 8.2314 6.82333 7.84302 6.61191L7.12586 7.92936ZM16.157 6.61192C15.7686 6.82334 15.2955 6.5422 15.2955 6.1H13.7955C13.7955 7.68023 15.4862 8.68489 16.8741 7.92937L16.157 6.61192Z" fill="#292929"/>
<circle cx="12" cy="12.5" r="3" fill="white" stroke="#292929" stroke-width="1.5"/>
</svg>
