<svg width="20" height="20" viewBox="0 0 20 20" fill="none" xmlns="http://www.w3.org/2000/svg">
<path d="M7.19298 8.69664C6.71412 7.7408 5.72552 7.08464 4.58366 7.08464C2.97283 7.08464 1.66699 8.39047 1.66699 10.0013C1.66699 11.6121 2.97283 12.918 4.58366 12.918C5.72552 12.918 6.71412 12.2618 7.19298 11.306M7.19298 8.69664C7.38964 9.08921 7.50033 9.53233 7.50033 10.0013C7.50033 10.4703 7.38964 10.9134 7.19298 11.306M7.19298 8.69664L12.8077 5.88929M7.19298 11.306L12.8077 14.1133M12.8077 5.88929C13.2865 6.84513 14.2751 7.5013 15.417 7.5013C17.0278 7.5013 18.3337 6.19547 18.3337 4.58464C18.3337 2.9738 17.0278 1.66797 15.417 1.66797C13.8062 1.66797 12.5003 2.9738 12.5003 4.58464C12.5003 5.05361 12.611 5.49672 12.8077 5.88929ZM12.8077 14.1133C12.611 14.5059 12.5003 14.949 12.5003 15.418C12.5003 17.0288 13.8062 18.3346 15.417 18.3346C17.0278 18.3346 18.3337 17.0288 18.3337 15.418C18.3337 13.8071 17.0278 12.5013 15.417 12.5013C14.2751 12.5013 13.2865 13.1575 12.8077 14.1133Z" stroke="#272727" stroke-linecap="round"/>
</svg>
