<svg width="20" height="20" viewBox="0 0 20 20" fill="none" xmlns="http://www.w3.org/2000/svg">
<path fill-rule="evenodd" clip-rule="evenodd" d="M7.83823 2.41013C8.14734 1.94647 8.66773 1.66797 9.22498 1.66797H10.7744C11.3316 1.66797 11.852 1.94647 12.1611 2.41014L12.9163 3.54297H16.0413C16.3865 3.54297 16.6663 3.82279 16.6663 4.16797C16.6663 4.51315 16.3865 4.79297 16.0413 4.79297H3.95801C3.61283 4.79297 3.33301 4.51315 3.33301 4.16797C3.33301 3.82279 3.61283 3.54297 3.95801 3.54297H7.08301L7.83823 2.41013ZM12.4997 18.3346H7.49967C5.65873 18.3346 4.16634 16.8423 4.16634 15.0013V5.83464H15.833V15.0013C15.833 16.8423 14.3406 18.3346 12.4997 18.3346ZM8.33301 8.54297C8.67819 8.54297 8.95801 8.82279 8.95801 9.16797V15.0013C8.95801 15.3465 8.67819 15.6263 8.33301 15.6263C7.98783 15.6263 7.70801 15.3465 7.70801 15.0013L7.70801 9.16797C7.70801 8.82279 7.98783 8.54297 8.33301 8.54297ZM11.6663 8.54297C12.0115 8.54297 12.2913 8.82279 12.2913 9.16797V15.0013C12.2913 15.3465 12.0115 15.6263 11.6663 15.6263C11.3212 15.6263 11.0413 15.3465 11.0413 15.0013V9.16797C11.0413 8.82279 11.3212 8.54297 11.6663 8.54297Z" fill="white"/>
</svg>
