<svg width="21" height="17" viewBox="0 0 21 17" fill="none" xmlns="http://www.w3.org/2000/svg">
<path d="M7.5 8.5C9.70938 8.5 11.5 6.70937 11.5 4.5C11.5 2.29063 9.70938 0.5 7.5 0.5C5.29063 0.5 3.5 2.29063 3.5 4.5C3.5 6.70937 5.29063 8.5 7.5 8.5ZM10.3 9.5H9.77812C9.08437 9.81875 8.3125 10 7.5 10C6.6875 10 5.91875 9.81875 5.22188 9.5H4.7C2.38125 9.5 0.5 11.3813 0.5 13.7V15C0.5 15.8281 1.17188 16.5 2 16.5H10.5906C10.5156 16.2875 10.4844 16.0625 10.5094 15.8344L10.7219 13.9312L10.7594 13.5844L11.0063 13.3375L13.4219 10.9219C12.6562 10.0562 11.5469 9.5 10.3 9.5ZM11.7156 14.0406L11.5031 15.9469C11.4688 16.2656 11.7375 16.5344 12.0531 16.4969L13.9563 16.2844L18.2656 11.975L16.025 9.73438L11.7156 14.0406ZM20.2812 8.90312L19.0969 7.71875C18.8062 7.42812 18.3312 7.42812 18.0406 7.71875L16.8594 8.9L16.7313 9.02812L18.975 11.2688L20.2812 9.9625C20.5719 9.66875 20.5719 9.19687 20.2812 8.90312Z" fill="#292929"/>
</svg>
